<?xml version="1.0" standalone="no"?>
<!DOCTYPE svg PUBLIC "-//W3C//DTD SVG 20010904//EN"
 "http://www.w3.org/TR/2001/REC-SVG-20010904/DTD/svg10.dtd">
<svg version="1.0" xmlns="http://www.w3.org/2000/svg"
 width="358.000000pt" height="169.000000pt" viewBox="0 0 358.000000 169.000000"
 preserveAspectRatio="xMidYMid meet">

<g transform="translate(0.000000,169.000000) scale(0.100000,-0.100000)"
fill="#000000" stroke="none">
<path d="M1328 1463 c7 -3 16 -2 19 1 4 3 -2 6 -13 5 -11 0 -14 -3 -6 -6z"/>
<path d="M1885 1410 c27 -12 43 -12 25 0 -8 5 -22 9 -30 9 -10 0 -8 -3 5 -9z"/>
<path d="M1930 1400 c0 -5 5 -10 11 -10 5 0 7 5 4 10 -3 6 -8 10 -11 10 -2 0
-4 -4 -4 -10z"/>
<path d="M2031 1337 c2 -1 15 -11 29 -22 l25 -20 -19 23 c-11 12 -24 22 -29
22 -6 0 -8 -1 -6 -3z"/>
<path d="M620 1301 c0 -6 4 -13 10 -16 6 -3 7 1 4 9 -7 18 -14 21 -14 7z"/>
<path d="M1965 1140 c3 -5 8 -10 11 -10 2 0 4 5 4 10 0 6 -5 10 -11 10 -5 0
-7 -4 -4 -10z"/>
<path d="M2925 1070 c9 -16 18 -30 21 -30 2 0 -2 14 -11 30 -9 17 -18 30 -21
30 -2 0 2 -13 11 -30z"/>
<path d="M2800 913 c0 -6 9 -21 21 -34 l20 -24 -17 30 c-24 39 -24 40 -24 28z"/>
<path d="M1949 763 c-13 -16 -12 -17 4 -4 16 13 21 21 13 21 -2 0 -10 -8 -17
-17z"/>
<path d="M2160 735 c-7 -9 -11 -17 -9 -20 3 -2 10 5 17 15 14 24 10 26 -8 5z"/>
<path d="M730 730 c0 -5 5 -10 11 -10 5 0 7 5 4 10 -3 6 -8 10 -11 10 -2 0 -4
-4 -4 -10z"/>
<path d="M766 677 c3 -10 9 -15 12 -12 3 3 0 11 -7 18 -10 9 -11 8 -5 -6z"/>
<path d="M810 601 c0 -6 4 -13 10 -16 6 -3 7 1 4 9 -7 18 -14 21 -14 7z"/>
<path d="M3241 534 c0 -11 3 -14 6 -6 3 7 2 16 -1 19 -3 4 -6 -2 -5 -13z"/>
<path d="M2653 493 c9 -2 23 -2 30 0 6 3 -1 5 -18 5 -16 0 -22 -2 -12 -5z"/>
<path d="M190 249 c0 -51 4 -78 10 -74 6 3 10 29 10 57 0 57 4 56 40 -9 14
-25 30 -45 35 -44 13 1 19 151 6 151 -6 0 -11 -26 -13 -57 l-3 -58 -33 58
c-19 31 -38 57 -43 57 -5 0 -9 -36 -9 -81z"/>
<path d="M345 280 c14 -27 25 -63 25 -80 0 -18 4 -29 10 -25 6 3 10 20 10 36
0 16 9 47 20 69 22 44 24 50 12 50 -5 0 -16 -17 -26 -37 l-18 -38 -19 38 c-11
20 -24 37 -29 37 -6 0 1 -22 15 -50z"/>
<path d="M462 268 c-23 -67 -28 -103 -12 -93 6 3 10 15 10 26 0 15 7 19 35 19
28 0 35 -4 35 -19 0 -20 13 -35 23 -25 9 9 -44 154 -56 154 -7 0 -22 -28 -35
-62z m41 -26 c-22 -5 -26 4 -18 35 l8 28 12 -30 c11 -26 11 -30 -2 -33z"/>
<path d="M582 253 l3 -78 43 -3 c25 -2 42 1 42 7 0 6 -16 11 -35 11 l-35 0 0
70 c0 42 -4 70 -10 70 -7 0 -10 -29 -8 -77z"/>
<path d="M700 250 c0 -47 4 -80 10 -80 6 0 10 33 10 80 0 47 -4 80 -10 80 -6
0 -10 -33 -10 -80z"/>
<path d="M760 256 c0 -44 4 -76 10 -76 6 0 10 26 10 58 l0 57 30 -51 c52 -90
60 -89 60 5 0 52 -4 80 -10 76 -5 -3 -10 -30 -10 -58 l0 -52 -33 54 c-47 79
-57 77 -57 -13z"/>
<path d="M920 249 l0 -82 37 6 c46 8 62 24 69 68 8 48 -25 89 -72 89 l-34 0 0
-81z m74 45 c31 -30 7 -104 -33 -104 -23 0 -31 19 -31 76 0 40 2 44 24 44 14
0 32 -7 40 -16z"/>
<path d="M1060 270 c0 -83 36 -119 91 -90 16 9 19 22 19 82 0 39 -2 69 -5 66
-3 -3 -6 -27 -7 -54 -1 -59 -12 -84 -38 -84 -27 0 -40 30 -40 89 0 28 -4 51
-10 51 -6 0 -10 -27 -10 -60z"/>
<path d="M1219 328 c-1 -4 -1 -132 0 -146 1 -7 6 -10 12 -6 7 4 9 25 7 55 -3
27 -2 49 1 49 4 0 20 -23 36 -52 17 -28 35 -50 40 -50 13 2 19 152 6 152 -6 0
-11 -28 -13 -62 l-3 -63 -33 63 c-18 34 -37 62 -42 62 -6 0 -10 -1 -11 -2z"/>
<path d="M1388 313 c-54 -63 -12 -154 62 -138 29 6 31 10 28 43 -2 30 -8 38
-25 40 -13 2 -23 -1 -23 -7 0 -6 7 -11 15 -11 9 0 15 -10 15 -26 0 -22 -4 -25
-27 -22 -17 2 -33 13 -43 31 -13 24 -13 30 1 55 11 21 23 27 47 27 19 0 32 5
32 12 0 20 -64 16 -82 -4z"/>
<path d="M1570 249 l0 -82 38 6 c44 7 72 38 72 79 0 39 -40 78 -80 78 l-30 0
0 -81z m74 45 c31 -31 7 -104 -35 -104 -17 0 -19 7 -19 60 0 53 2 60 19 60 11
0 27 -7 35 -16z"/>
<path d="M1710 256 c0 -41 5 -78 10 -81 6 -4 10 23 10 74 0 47 -4 81 -10 81
-6 0 -10 -31 -10 -74z"/>
<path d="M1791 311 c-29 -29 -28 -93 1 -121 42 -39 102 -17 96 35 -2 22 -9 31
-25 33 -13 2 -23 -1 -23 -7 0 -6 7 -11 16 -11 24 0 13 -44 -12 -48 -30 -4 -54
24 -54 62 0 41 21 60 60 54 19 -3 29 -1 27 6 -7 21 -65 18 -86 -3z"/>
<path d="M1920 256 c0 -41 5 -78 10 -81 6 -4 10 23 10 74 0 47 -4 81 -10 81
-6 0 -10 -31 -10 -74z"/>
<path d="M1975 320 c3 -5 15 -10 26 -10 17 0 19 -7 19 -70 0 -40 4 -70 10 -70
6 0 10 30 10 70 0 63 2 70 19 70 11 0 23 5 26 10 4 6 -17 10 -55 10 -38 0 -59
-4 -55 -10z"/>
<path d="M2110 255 c-13 -41 -21 -78 -17 -81 4 -4 11 5 16 20 8 20 17 26 40
26 23 0 30 -5 35 -26 5 -17 11 -23 17 -17 12 12 -35 147 -53 151 -10 2 -22
-22 -38 -73z m54 8 c6 -19 4 -23 -14 -23 -18 0 -21 4 -16 23 3 12 6 29 6 37 1
13 2 13 9 0 5 -8 12 -25 15 -37z"/>
<path d="M2242 253 l-2 -83 40 0 c22 0 40 5 40 10 0 6 -16 10 -35 10 l-34 0
-4 73 -3 72 -2 -82z"/>
<path d="M2400 248 c0 -89 17 -99 22 -13 l3 50 33 -57 c19 -32 38 -58 43 -58
5 0 9 36 9 80 0 91 -17 109 -22 23 l-3 -58 -33 58 c-18 31 -37 57 -42 57 -6 0
-10 -34 -10 -82z"/>
<path d="M2552 253 l3 -78 43 -3 c25 -2 42 1 42 7 0 6 -16 11 -36 11 -33 0
-35 2 -32 27 2 22 10 29 33 34 l30 6 -30 4 c-22 3 -31 10 -33 27 -3 19 1 22
32 22 20 0 36 5 36 10 0 6 -20 10 -45 10 l-46 0 3 -77z"/>
<path d="M2670 320 c0 -5 9 -10 20 -10 18 0 20 -7 20 -70 0 -40 4 -70 10 -70
6 0 10 30 10 70 0 68 1 70 25 70 14 0 25 5 25 10 0 6 -25 10 -55 10 -30 0 -55
-4 -55 -10z"/>
<path d="M2794 313 c3 -10 10 -43 16 -73 6 -30 14 -58 19 -63 12 -12 27 17 36
66 4 20 11 37 15 37 4 0 12 -25 19 -56 15 -68 32 -66 47 5 7 28 15 63 18 76 4
14 2 25 -3 25 -5 0 -16 -28 -24 -62 l-14 -63 -18 63 c-10 34 -21 62 -26 62 -4
0 -13 -19 -19 -42 -6 -24 -15 -52 -20 -63 -8 -18 -9 -18 -9 5 -2 39 -21 100
-32 100 -6 0 -8 -8 -5 -17z"/>
<path d="M3007 312 c-24 -27 -22 -97 3 -122 27 -27 56 -25 85 5 35 34 30 101
-9 127 -20 14 -63 8 -79 -10z m85 -34 c18 -53 -31 -108 -67 -78 -18 15 -20 81
-3 98 21 21 60 10 70 -20z"/>
<path d="M3150 256 c0 -41 5 -78 10 -81 6 -4 10 8 10 29 0 47 21 47 49 0 25
-42 39 -39 21 5 -10 25 -9 34 3 52 28 39 4 69 -55 69 l-38 0 0 -74z m85 44
c10 -16 -15 -40 -41 -40 -19 0 -24 5 -24 25 0 21 5 25 29 25 17 0 33 -5 36
-10z"/>
<path d="M3290 256 c0 -41 5 -78 10 -81 6 -3 10 4 10 17 0 14 6 32 13 42 12
16 15 14 41 -24 36 -55 46 -44 12 13 l-26 45 21 26 c34 43 12 43 -26 0 l-34
-39 -1 38 c0 20 -4 37 -10 37 -6 0 -10 -31 -10 -74z"/>
</g>
</svg>
